<svg id="Layer_1" data-name="Layer 1" xmlns="http://www.w3.org/2000/svg" viewBox="0 0 602.64 80.39"><defs><style>.cls-1{fill:#0ed587;}</style></defs><title>uklon_assets_upd [Recovered]</title><path d="M580.62,21.75c-7.94,0-15,5-19.15,11.75V22.9H546.59V79h14.88V50.13c0-11.78,6.78-15.61,13.64-15.61,7.31,0,12.67,5,12.67,15,0,10.48-.09,29.44-.09,29.44h14.88l.07-34.1C602.64,30.56,593.63,21.75,580.62,21.75Z"/><rect x="452.51" width="14.88" height="78.95"/><polygon points="427.33 22.84 405.88 45.98 405.88 0 391 0 391 78.95 405.88 78.95 405.66 56.13 426.94 78.81 445.54 78.81 419.51 50.83 445.54 22.84 427.33 22.84"/><path d="M507.06,21.59c-16.7,0-30.24,13.16-30.24,29.4s13.54,29.4,30.24,29.4S537.3,67.23,537.3,51,523.76,21.59,507.06,21.59Zm0,45.36a16,16,0,1,1,15.57-16A15.76,15.76,0,0,1,507.06,67Z"/><path d="M362.93,51.72c0,11.78-6.78,15.61-13.63,15.61-7.32,0-12.67-5-12.67-15,0-10.48.09-29.45.09-29.45H321.83L321.76,57c0,14.3,9,23.11,22,23.11,7.94,0,15.05-5,19.15-11.75V79h14.89V22.84H362.93Z"/><path d="M37.25,67.84a16.67,16.67,0,0,1-9,2.53,16.89,16.89,0,0,1-15.36-9.12,20,20,0,0,1-2.27-9.49,19.77,19.77,0,0,1,2.27-9.44,16.79,16.79,0,0,1,6.28-6.71,17,17,0,0,1,9.08-2.45,16.7,16.7,0,0,1,9,2.56,14.91,14.91,0,0,1,5.91,6.85l9.23-5.12a24.5,24.5,0,0,0-7.46-8.55,26.83,26.83,0,0,0-16.19-5.26,29,29,0,0,0-14.57,3.75A27.05,27.05,0,0,0,3.79,37.56,27.4,27.4,0,0,0,0,51.76,27.54,27.54,0,0,0,3.79,66,27,27,0,0,0,14.17,76.17a29,29,0,0,0,14.57,3.72,26.73,26.73,0,0,0,16.19-5.23,24.72,24.72,0,0,0,7.39-8.44s0-.11.07-.14L43.16,61A15,15,0,0,1,37.25,67.84Z"/><path d="M217,56c.07-.72.11-1.84.11-3.35a34.5,34.5,0,0,0-2.2-12.69,22.57,22.57,0,0,0-1.16-2.6,24.05,24.05,0,0,0-9.59-10.13,28.66,28.66,0,0,0-14.53-3.57,28.25,28.25,0,0,0-14.24,3.64,25.76,25.76,0,0,0-9.88,10.06,29.2,29.2,0,0,0-3.57,14.42,29.33,29.33,0,0,0,3.57,14.46,25.67,25.67,0,0,0,9.95,10.06,28.36,28.36,0,0,0,14.28,3.61,27.48,27.48,0,0,0,15.9-4.8,25.19,25.19,0,0,0,7.43-7.71l-.62-.33-7.82-4.33c-3,5.09-7.9,7.65-14.89,7.65A17.17,17.17,0,0,1,172.63,56Zm-44.24-9a17,17,0,0,1,5.66-10.27,16.18,16.18,0,0,1,11-4,16.81,16.81,0,0,1,11.29,3.89A15,15,0,0,1,205.94,47Z"/><path d="M113.39,24.72V78.8H103.11V70.69A23.94,23.94,0,0,1,95,77.45a22,22,0,0,1-10.17,2.44,24.09,24.09,0,0,1-13-3.63,25.38,25.38,0,0,1-9.19-10,30.67,30.67,0,0,1-3.36-14.5,30.6,30.6,0,0,1,3.36-14.49,25.41,25.41,0,0,1,9.19-10,24.17,24.17,0,0,1,13-3.62,21.83,21.83,0,0,1,10.49,2.6,24.9,24.9,0,0,1,8.33,7.24V24.72ZM95.21,68a16.13,16.13,0,0,0,6.06-6.65,20.94,20.94,0,0,0,2.17-9.58,20.92,20.92,0,0,0-2.17-9.57,16.16,16.16,0,0,0-14.71-9A15.67,15.67,0,0,0,78,35.54a16.3,16.3,0,0,0-6,6.65,20.8,20.8,0,0,0-2.17,9.57,20.81,20.81,0,0,0,2.17,9.58A16.37,16.37,0,0,0,78,68a15.67,15.67,0,0,0,8.54,2.38A16.22,16.22,0,0,0,95.21,68Z"/><path d="M159.37,24V34a32,32,0,0,0-6.16-.43,16.08,16.08,0,0,0-8.39,2.16,15.3,15.3,0,0,0-5.62,5.79,16.13,16.13,0,0,0-2,8V78.8H126.92V24.72h9.74v8.33a22.23,22.23,0,0,1,7.73-6.87,21,21,0,0,1,10.12-2.54A35.31,35.31,0,0,1,159.37,24Z"/><polygon class="cls-1" points="239.4 78.95 256.27 78.95 301.85 0 284.98 0 239.4 78.95"/></svg>