<svg width="92" height="113" viewBox="0 0 92 113" fill="none" xmlns="http://www.w3.org/2000/svg">
<path d="M91 46.1548C91 71.2174 70.8586 91.4503 45.93 91.4503C21.1433 91.4503 1 71.2194 1 46.1548C1 21.2329 21.1414 1 45.93 1C70.8606 1 91 21.2349 91 46.1548Z" fill="#319B42" stroke="white" stroke-width="2"/>
<path d="M23.1042 64.8697C23.1042 65.5733 22.9642 66.1361 22.264 66.1361C21.844 66.1361 22.4041 66.1361 22.124 66.1361C19.8835 66.1361 18.2032 65.5733 17.223 64.5883C16.2427 63.6033 15.8226 61.9147 15.8226 59.3818V51.0796C15.8226 49.8131 15.6826 48.8281 15.2625 48.1245C14.8424 47.4209 14.2823 46.9988 13.3021 46.7174C12.742 46.5766 12.4619 46.0138 12.4619 45.4509C12.4619 44.8881 12.742 44.4659 13.3021 44.1845C14.9825 43.7623 15.8226 42.3552 15.8226 40.1037V31.2386C15.8226 28.9872 16.2427 27.4393 17.363 26.4543C18.3432 25.4693 20.0236 25.0471 22.264 25.0471H22.4041C23.1042 25.0471 23.2443 25.61 23.2443 26.3136C23.2443 27.0171 23.1042 27.1579 22.4041 27.1579C20.7237 27.1579 19.6035 27.4393 19.0433 28.0022C18.4832 28.565 18.2032 29.55 18.2032 31.0979V40.1037C18.2032 41.0887 18.0631 42.0737 17.7831 42.918C17.503 43.903 16.6628 44.6066 15.4026 45.3102C16.3828 45.8731 17.0829 46.5766 17.503 47.2802C17.9231 48.1245 18.0631 49.1095 18.0631 50.6574V59.3818C18.0631 61.0704 18.3432 62.1961 18.9033 62.759C19.4634 63.3218 20.5837 63.6033 22.4041 63.6033C22.8242 64.0254 23.1042 64.3068 23.1042 64.8697ZM69.7344 64.0254C71.4147 64.0254 72.675 63.744 73.2351 63.1811C73.7953 62.6183 74.0753 61.4925 74.0753 59.8039V51.0796C74.0753 49.6724 74.2153 48.5467 74.6354 47.7024C75.0555 46.8581 75.7557 46.2952 76.7359 45.7323C75.4756 45.0288 74.6354 44.3252 74.3554 43.3402C74.0753 42.4959 73.9353 41.5109 73.9353 40.5259V31.52C73.9353 29.9722 73.6552 28.8464 73.0951 28.4243C72.535 27.8614 71.4147 27.58 69.7344 27.58C69.0342 27.58 68.4741 27.4393 68.4741 26.7357C68.4741 26.0321 69.0342 25.4693 69.7344 25.4693H70.0144C72.2549 25.4693 73.9353 25.8914 74.9155 26.8764C75.8957 27.8614 76.4558 29.4093 76.4558 31.6608V40.5259C76.4558 42.7773 77.296 44.1845 78.9764 44.6066C79.6765 44.8881 79.9566 45.5916 79.6765 46.2952C79.5365 46.5766 79.2564 46.8581 78.9764 46.9988C77.9962 47.2802 77.436 47.7024 77.016 48.406C76.5959 49.1095 76.4558 50.0945 76.4558 51.361V59.6632C76.4558 62.0554 76.0357 63.8847 75.0555 64.8697C74.0753 65.8547 72.535 66.4176 70.1545 66.4176C69.8744 66.4176 70.2945 66.4176 70.0144 66.4176C69.3143 66.4176 68.7542 65.8547 68.7542 65.1511C68.7542 64.4476 69.0342 64.0254 69.7344 64.0254Z" fill="#A5D3AF"/>
<path d="M39.7687 41.9332C41.169 41.9332 42.2892 41.5111 43.1294 40.5261C44.1096 39.5411 44.5297 38.4153 44.5297 37.1489C44.5297 35.8824 44.1096 34.7567 43.1294 33.7717C42.1492 32.7867 41.0289 32.3645 39.7687 32.3645C38.5084 32.3645 37.2481 32.7867 36.4079 33.7717C35.4277 34.616 35.0076 35.8824 35.0076 37.1489C35.0076 38.4153 35.4277 39.5411 36.4079 40.5261C37.2481 41.3704 38.5084 41.9332 39.7687 41.9332ZM37.8082 35.1789C38.3684 34.616 38.9285 34.3346 39.7687 34.3346C40.4688 34.3346 41.169 34.616 41.7291 35.1789C42.2892 35.7417 42.5693 36.3046 42.5693 37.1489C42.5693 37.9932 42.2892 38.556 41.7291 39.1189C41.169 39.6818 40.4688 39.9632 39.7687 39.9632C39.0685 39.9632 38.3684 39.6818 37.8082 39.1189C37.2481 38.556 36.9681 37.8525 36.9681 37.1489C36.9681 36.3046 37.2481 35.601 37.8082 35.1789ZM63.0137 34.4753C64.274 34.4753 65.2542 35.0382 65.5343 36.1639H60.6332C61.0533 35.0382 61.8935 34.4753 63.0137 34.4753ZM66.3745 51.3612C65.5343 50.5169 64.414 49.954 63.1538 49.954C62.1735 49.954 61.0533 50.3762 60.3532 51.0798V47.8433C60.3532 47.2804 59.793 46.8583 59.2329 46.8583C58.6728 46.8583 58.2527 47.2804 58.2527 47.8433V58.5377C58.2527 59.1006 58.6728 59.5227 59.2329 59.5227C59.793 59.5227 60.2131 59.1006 60.2131 58.5377V58.2563C60.6332 58.6784 61.1933 59.1006 61.6134 59.2413C62.1735 59.382 62.5936 59.5227 63.1538 59.5227C64.414 59.5227 65.5343 59.1006 66.3745 58.1155C67.2146 57.1305 67.6347 56.0048 67.6347 54.7384C67.6347 53.4719 67.2146 52.3462 66.3745 51.3612ZM64.6941 56.7084C64.274 57.2713 63.5739 57.5527 62.8737 57.412C62.1736 57.412 61.4734 57.1305 61.0533 56.7084C60.4932 56.2862 60.2131 55.5827 60.2131 54.8791C60.2131 54.0348 60.4932 53.4719 60.9133 52.9091C61.3334 52.3462 62.0335 52.2055 62.7337 52.2055C63.4338 52.2055 64.134 52.4869 64.5541 52.9091C65.1142 53.4719 65.2542 54.0348 65.2542 54.7384C65.3942 55.5827 65.2542 56.1455 64.6941 56.7084ZM54.3318 51.0798V58.5377C54.3318 59.1006 53.9117 59.5227 53.3516 59.5227C52.7915 59.5227 52.3714 59.1006 52.3714 58.5377C52.3714 58.5377 52.3714 58.5377 52.3714 58.397V57.9748C52.2314 58.2563 52.0914 58.397 51.9513 58.5377C51.3912 59.2413 50.551 59.5227 49.4308 59.5227C48.7306 59.5227 48.0305 59.382 47.4704 59.1006C46.9102 58.8191 46.4901 58.397 46.2101 57.8341C45.93 57.412 45.79 56.8491 45.79 56.1455C45.79 55.5827 45.79 55.0198 45.79 54.3162V51.0798C45.79 50.5169 46.2101 49.954 46.9102 49.954C47.4704 49.954 48.0305 50.3762 48.0305 51.0798V51.2205V54.3162C48.0305 54.8791 48.0305 55.3012 48.0305 55.4419C48.0305 55.8641 48.1705 56.2862 48.3105 56.5677C48.5906 57.1305 49.1507 57.412 49.9909 57.412C51.6713 57.412 52.5114 56.2862 52.5114 54.1755V50.939C52.5114 50.3762 52.9315 49.8133 53.6317 49.8133C54.3318 49.8133 54.3318 50.5169 54.3318 51.0798ZM55.032 29.2688C54.4719 29.2688 54.0518 29.6909 54.0518 30.2538V33.3496C53.4917 32.9274 53.0716 32.646 52.5114 32.5053C52.0914 32.3645 51.5312 32.3645 51.1111 32.3645C49.8509 32.3645 48.7306 32.7867 47.8904 33.7717C47.0503 34.616 46.6302 35.7417 46.6302 37.1489C46.6302 38.556 47.0503 39.6818 47.8904 40.5261C48.7306 41.5111 49.8509 41.9332 50.9711 41.9332C51.9513 41.9332 52.7915 41.6518 53.4917 41.0889C53.6317 40.9482 53.7717 40.8075 53.9118 40.6668V40.8075C53.9118 41.3704 54.3318 41.7925 54.892 41.7925C55.4521 41.7925 56.0122 41.3704 56.0122 40.8075V30.2538C56.0122 29.6909 55.5921 29.2688 55.032 29.2688ZM53.2116 38.9782C52.7915 39.5411 52.0914 39.6818 51.3912 39.6818C50.6911 39.6818 50.1309 39.4003 49.5708 38.9782C49.1507 38.4153 48.8707 37.8525 48.8707 37.1489C48.8707 36.4453 49.1507 35.7417 49.5708 35.1789C50.1309 34.616 50.6911 34.4753 51.3912 34.4753C52.0914 34.4753 52.7915 34.7567 53.2116 35.1789C53.6317 35.7417 53.9118 36.3046 53.9118 37.1489C54.0518 37.8525 53.7717 38.4153 53.2116 38.9782ZM42.9894 58.2563C42.9894 58.8191 42.5693 59.2413 42.0092 59.2413H36.688C36.1279 59.2413 35.7078 58.8191 35.7078 58.2563C35.7078 57.6934 36.1279 57.2713 36.688 57.2713H38.3684V49.1097H36.688C36.1279 49.1097 35.7078 48.6876 35.7078 48.1247C35.7078 47.5619 36.1279 47.1397 36.688 47.1397H39.4886C40.0487 47.1397 40.4688 47.5619 40.4688 48.1247V57.2713H42.0092C42.5693 57.2713 42.9894 57.8341 42.9894 58.2563ZM27.1659 52.9091C26.6058 53.4719 26.3257 54.1755 26.4658 54.8791C26.4658 55.5827 26.7458 56.2862 27.1659 56.8491C28.1461 57.8341 29.6865 57.9748 30.8067 56.9898C30.8067 56.9898 30.8067 56.9898 30.9468 56.8491C31.3668 56.427 32.207 56.427 32.6271 56.8491C33.0472 57.2713 33.0472 57.8341 32.6271 58.2563C31.6469 59.1006 30.3866 59.6634 29.1264 59.6634C27.8661 59.6634 26.6058 59.1006 25.6256 58.2563C23.8052 56.427 23.6652 53.4719 25.4856 51.6426L25.6256 51.5019C27.586 49.6726 30.6667 49.6726 32.6271 51.5019C33.0472 51.924 33.0472 52.4869 32.6271 52.9091C32.207 53.3312 31.3668 53.3312 30.9468 52.9091C29.8265 51.7833 28.2862 51.7833 27.1659 52.9091C27.1659 52.7683 27.1659 52.7683 27.1659 52.9091ZM27.0259 35.1789C26.4658 35.7417 26.3257 36.4453 26.3257 37.1489C26.3257 37.8525 26.6058 38.556 27.0259 39.1189C28.0061 40.1039 29.5464 40.2446 30.5267 39.2596L30.6667 39.1189C31.0868 38.6968 31.927 38.6968 32.3471 39.1189C32.7671 39.5411 32.7671 40.1039 32.3471 40.5261C31.3668 41.3704 30.2466 41.9332 28.8463 41.9332C27.586 41.9332 26.3257 41.3704 25.3455 40.5261C23.5251 38.6968 23.3851 35.7417 25.2055 33.9124L25.3455 33.7717C27.306 31.9424 30.3866 31.9424 32.207 33.7717C32.6271 34.1939 32.6271 34.7567 32.207 35.1789C31.7869 35.601 30.9468 35.601 30.5267 35.1789C29.8265 34.0531 28.1461 34.0531 27.0259 35.1789C27.1659 35.0381 27.1659 35.0381 27.0259 35.1789ZM67.0746 40.5261C67.4947 40.1039 67.4947 39.4003 67.0746 38.9782C66.6545 38.556 65.8143 38.556 65.5343 38.9782C64.9742 39.4003 64.414 39.6818 63.7139 39.6818H63.4338C62.7337 39.6818 62.0335 39.5411 61.6134 39.1189C61.1933 38.8375 60.7732 38.2746 60.6332 37.7118H66.6545C67.3547 37.7118 67.9148 37.1489 67.9148 36.4453V36.3046C67.7748 35.3196 67.3547 34.3346 66.6545 33.4903C65.8143 32.5053 64.6941 32.0831 63.2938 32.0831C62.0335 32.0831 60.9133 32.5053 59.9331 33.4903C58.9528 34.3346 58.5328 35.601 58.5328 36.8675C58.5328 38.2746 58.9528 39.4003 59.9331 40.2446C60.7732 41.0889 62.0335 41.6518 63.4338 41.6518H63.8539C64.9742 41.9332 66.2344 41.3704 67.0746 40.5261Z" fill="white"/>
<path d="M10.8718 105.564L13.0534 99.7705C13.365 98.9876 13.8325 98.5178 14.4558 98.5178C15.2349 98.5178 15.7024 98.9876 15.7024 99.6139C15.7024 99.9271 15.7024 100.24 15.3907 100.71L11.8068 109.009C10.8718 111.358 9.93688 112.767 7.91116 112.767C6.8204 112.767 6.19709 112.297 6.19709 111.515C6.19709 110.888 6.66457 110.575 7.28787 110.575H7.75533C8.37863 110.575 8.84611 110.732 9.62523 108.539L5.5738 100.71C5.41798 100.397 5.41797 100.24 5.41797 100.084C5.41797 99.3008 6.04127 98.831 6.66457 98.831C7.28786 98.831 7.75534 98.9876 8.06699 99.9271L10.8718 105.564Z" fill="#319B42"/>
<path d="M20.5334 111.045C20.5334 112.297 19.9101 112.767 19.1309 112.767C18.5076 112.767 17.7285 112.297 17.7285 111.045V100.397C17.7285 99.1441 18.3518 98.6743 19.1309 98.6743C19.7542 98.6743 20.5334 99.1441 20.5334 100.397V104.781C20.845 104.781 21.1567 104.625 21.4683 104.311C21.9358 103.842 23.0265 100.867 23.3382 100.24C23.8057 99.3007 25.0523 98.8309 26.143 98.8309C26.7663 98.8309 27.2338 99.3007 27.2338 99.7704C27.2338 100.24 26.9222 100.71 26.143 100.867C25.0523 101.023 24.8965 101.336 24.2732 103.372C23.9615 104.155 23.6499 104.938 22.7149 105.408C23.9615 105.877 24.8964 107.13 25.6756 108.852L26.2989 110.105C26.6105 110.732 26.7663 111.201 26.7663 111.514C26.7663 112.141 25.9872 112.611 25.3639 112.611C24.5848 112.611 24.429 112.454 23.8057 111.045L22.8707 109.166C22.8707 109.009 22.7149 108.852 22.5591 108.696L22.2474 108.07C21.4683 106.817 21.1567 106.504 20.5334 106.504V111.045Z" fill="#319B42"/>
<path d="M31.9083 107.131V110.419C31.9083 112.455 31.2851 112.768 30.5059 112.768C29.4152 112.768 29.1035 112.141 29.1035 110.419V101.18C29.1035 99.1447 29.4152 98.8315 30.9734 98.8315H34.2457C38.1413 98.8315 39.2321 100.554 39.2321 102.903C39.2321 105.721 37.518 107.131 34.2457 107.131H31.9083ZM31.9083 101.024V105.095H33.7782C36.1156 105.095 36.7389 104.312 36.7389 103.059C36.7389 101.494 35.6481 101.024 33.7782 101.024H31.9083Z" fill="#319B42"/>
<path d="M49.6711 109.166H44.2172L43.5939 110.888C42.9706 112.297 42.8148 112.611 42.0357 112.611C41.2565 112.611 40.7891 111.984 40.7891 111.358C40.7891 111.045 40.9449 110.575 41.1007 109.949L44.5289 101.18C45.308 99.3007 45.6196 98.6743 46.8662 98.6743C47.8012 98.6743 48.4245 99.1441 48.7361 100.084L52.7875 109.949C53.0992 110.575 53.255 111.045 53.255 111.358C53.255 111.984 52.6317 112.611 51.8526 112.611C51.0735 112.611 50.9177 112.297 50.2944 110.888L49.6711 109.166ZM44.9963 107.13H49.0478L47.022 101.493L44.9963 107.13Z" fill="#319B42"/>
<path d="M55.9062 96.4821C55.9062 97.1084 55.4387 97.5782 54.8154 97.5782C54.1921 97.5782 53.7246 97.1084 53.7246 96.4821C53.7246 95.8557 54.1921 95.386 54.8154 95.386C55.4387 95.386 55.9062 95.8557 55.9062 96.4821ZM58.0877 110.418C58.0877 111.828 58.0877 112.767 56.6853 112.767C55.4387 112.767 55.2829 111.984 55.2829 110.418V100.867C55.2829 99.4572 55.4387 98.5177 56.6853 98.5177C57.9319 98.5177 58.0877 99.3007 58.0877 100.867V110.418ZM59.4901 96.4821C59.4901 97.1084 59.0226 97.5782 58.3993 97.5782C57.776 97.5782 57.3086 97.1084 57.3086 96.4821C57.3086 95.8557 57.776 95.386 58.3993 95.386C59.0226 95.386 59.4901 95.8557 59.4901 96.4821Z" fill="#319B42"/>
<path d="M63.8527 104.155H69.774V100.867C69.774 99.6139 69.9298 98.5178 71.1764 98.5178C72.423 98.5178 72.5788 99.3008 72.5788 100.867V110.418C72.5788 111.828 72.5788 112.767 71.1764 112.767C69.9298 112.767 69.774 111.984 69.774 110.418V106.347H63.8527V110.418C63.8527 111.828 63.6969 112.767 62.4503 112.767C61.2037 112.767 61.0479 111.984 61.0479 110.418V100.867C61.0479 99.6139 61.2037 98.5178 62.4503 98.5178C63.6969 98.5178 63.8527 99.3008 63.8527 100.867V104.155Z" fill="#319B42"/>
<path d="M83.4865 109.166H78.0326L77.4093 110.888C76.786 112.297 76.6302 112.611 75.8511 112.611C75.072 112.611 74.6045 111.984 74.6045 111.358C74.6045 111.045 74.7603 110.575 74.9161 109.949L78.3443 101.18C79.1234 99.3007 79.4351 98.6743 80.6817 98.6743C81.6166 98.6743 82.2399 99.1441 82.5515 100.084L86.603 109.949C86.9146 110.575 87.0705 111.045 87.0705 111.358C87.0705 111.984 86.4472 112.611 85.668 112.611C84.8889 112.611 84.7331 112.297 84.1098 110.888L83.4865 109.166ZM78.6559 107.13H82.7074L80.6817 101.493L78.6559 107.13Z" fill="#319B42"/>
</svg>
